<svg xmlns="http://www.w3.org/2000/svg" width="256" height="256" viewBox="0 0 100 100"><path d="M37.41 83.82L29.49 83.82Q25.30 83.82 22.68 82.11Q20.05 80.39 18.81 77.72Q17.56 75.05 17.56 72.16L17.56 72.16L17.56 47.51L11.24 47.51L12.22 38.43L17.56 38.43L17.56 28.64L28.60 27.48L28.60 38.43L38.39 38.43L38.39 47.51L28.60 47.51L28.60 67.62Q28.60 71.00 29.00 72.49Q29.40 73.99 30.82 74.36Q32.24 74.74 35.36 74.74L35.36 74.74L38.39 74.74L37.41 83.82ZM68.73 83.82L68.73 83.82Q63.66 83.82 59.97 82.17Q56.27 80.53 53.07 77.68L53.07 77.68L56.36 75.36L55.83 82.93L45.51 82.93L45.51 16.18L56.54 16.18L56.54 45.82L53.87 44.13Q56.81 41.10 60.44 39.41Q64.06 37.72 68.73 37.72L68.73 37.72Q75.28 37.72 79.73 40.88Q84.18 44.04 86.47 49.29Q88.76 54.54 88.76 60.77L88.76 60.77Q88.76 67.00 86.47 72.25Q84.18 77.50 79.73 80.66Q75.28 83.82 68.73 83.82ZM67.13 74.74L67.13 74.74Q70.43 74.74 72.74 72.96Q75.05 71.18 76.25 68.04Q77.46 64.91 77.46 60.77L77.46 60.77Q77.46 56.63 76.25 53.49Q75.05 50.36 72.74 48.58Q70.43 46.80 67.13 46.80L67.13 46.80Q63.26 46.80 60.81 48.58Q58.37 50.36 57.19 53.49Q56.01 56.63 56.01 60.77L56.01 60.77Q56.01 64.91 57.19 68.04Q58.37 71.18 60.81 72.96Q63.26 74.74 67.13 74.74Z" fill="#9631f2"></path></svg>